<svg width="25" height="24" viewBox="0 0 25 24" fill="none" xmlns="http://www.w3.org/2000/svg">
<path fill-rule="evenodd" clip-rule="evenodd" d="M20.8576 8.70406C20.82 7.85391 20.6825 7.26945 20.4856 6.763C20.2824 6.22542 19.9697 5.74412 19.5601 5.34402C19.16 4.93769 18.6754 4.62195 18.144 4.42196C17.6344 4.22502 17.0529 4.08754 16.2027 4.05006C15.346 4.0094 15.074 4 12.9013 4C10.7286 4 10.4566 4.0094 9.60315 4.04688C8.75284 4.08437 8.16827 4.22197 7.66184 4.41878C7.12403 4.62195 6.64265 4.93451 6.24247 5.34402C5.83606 5.74412 5.52038 6.22859 5.32023 6.75994C5.12326 7.26945 4.98575 7.85074 4.94826 8.70088C4.9076 9.55738 4.89819 9.82928 4.89819 12.0016C4.89819 14.1739 4.9076 14.4458 4.94509 15.2991C4.98258 16.1493 5.1202 16.7338 5.31718 17.2402C5.52038 17.7778 5.83606 18.259 6.24247 18.6591C6.64265 19.0655 7.12721 19.3812 7.65867 19.5812C8.16827 19.7782 8.74967 19.9156 9.6001 19.9531C10.4535 19.9907 10.7255 20 12.8983 20C15.071 20 15.3429 19.9907 16.1964 19.9531C17.0468 19.9156 17.6313 19.7782 18.1377 19.5812C19.2132 19.1655 20.0636 18.3154 20.4793 17.2402C20.6762 16.7306 20.8138 16.1493 20.8513 15.2991C20.8888 14.4458 20.8982 14.1739 20.8982 12.0016C20.8982 9.82928 20.895 9.55738 20.8576 8.70406ZM19.4164 15.2366C19.382 16.018 19.2507 16.44 19.1413 16.7213C18.8724 17.4183 18.3191 17.9715 17.6219 18.2404C17.3405 18.3498 16.9155 18.481 16.1369 18.5154C15.2928 18.553 15.0397 18.5622 12.9045 18.5622C10.7692 18.5622 10.5129 18.553 9.67191 18.5154C8.89035 18.481 8.46831 18.3498 8.18695 18.2404C7.84001 18.1122 7.52422 17.909 7.26789 17.6434C7.00216 17.3839 6.79896 17.0713 6.67074 16.7245C6.56131 16.4431 6.43004 16.018 6.39572 15.2398C6.35811 14.3958 6.34883 14.1426 6.34883 12.0078C6.34883 9.87299 6.35811 9.61671 6.39572 8.77597C6.43004 7.99457 6.56131 7.57261 6.67074 7.2913C6.79896 6.94431 7.00216 6.6287 7.27107 6.3723C7.53044 6.10662 7.84307 5.90346 8.19012 5.77538C8.47148 5.66598 8.8967 5.53473 9.67507 5.5003C10.5192 5.46282 10.7724 5.45342 12.9076 5.45342C15.046 5.45342 15.2991 5.46282 16.1401 5.5003C16.9216 5.53473 17.3437 5.66598 17.6251 5.77538C17.972 5.90346 18.2878 6.10662 18.5441 6.3723C18.8099 6.63174 19.0131 6.94431 19.1413 7.2913C19.2507 7.57261 19.382 7.99762 19.4164 8.77597C19.4539 9.61989 19.4633 9.87299 19.4633 12.0078C19.4633 14.1426 19.4539 14.3927 19.4164 15.2366ZM12.8447 8.27744C10.666 8.27744 8.89819 10.0451 8.89819 12.224C8.89819 14.4029 10.666 16.1705 12.8447 16.1705C15.0236 16.1705 16.7912 14.4029 16.7912 12.224C16.7912 10.0451 15.0236 8.27744 12.8447 8.27744ZM12.8447 14.784C11.4312 14.784 10.2847 13.6376 10.2847 12.224C10.2847 10.8104 11.4312 9.66396 12.8447 9.66396C14.2584 9.66396 15.4048 10.8104 15.4048 12.224C15.4048 13.6376 14.2584 14.784 12.8447 14.784ZM16.9473 9.04267C17.4562 9.04267 17.8688 8.63013 17.8688 8.12134C17.8688 7.61242 17.4562 7.2 16.9473 7.2C16.4385 7.2 16.026 7.61242 16.026 8.12134C16.026 8.63013 16.4385 9.04267 16.9473 9.04267Z" fill="#D1D1D6"/>
</svg>
