<svg width="72" height="34" viewBox="0 0 72 34" fill="none" xmlns="http://www.w3.org/2000/svg">
<path fill-rule="evenodd" clip-rule="evenodd" d="M72 8C72 3.58172 68.4183 0 64 0H8C3.58172 0 0 3.58172 0 8V26C0 30.4183 3.58172 34 8 34H64C68.4183 34 72 30.4183 72 26V8ZM8 2H64L64.2249 2.00414C67.4344 2.12243 70 4.7616 70 8V26L69.9959 26.2249C69.8776 29.4344 67.2384 32 64 32H8L7.77506 31.9959C4.56557 31.8776 2 29.2384 2 26V8L2.00414 7.77506C2.12243 4.56557 4.7616 2 8 2Z" fill="#E5E5EA"/>
<rect width="36" height="34" rx="8" fill="white"/>
<path fill-rule="evenodd" clip-rule="evenodd" d="M25 8C26.1046 8 27 8.89543 27 10V14C27 15.1046 26.1046 16 25 16H21C19.8954 16 19 15.1046 19 14V10C19 8.89543 19.8954 8 21 8H25ZM17 20C17 18.8954 16.1046 18 15 18H11C9.89543 18 9 18.8954 9 20V24C9 25.1046 9.89543 26 11 26H15C16.1046 26 17 25.1046 17 24V20ZM27 20C27 18.8954 26.1046 18 25 18H21C19.8954 18 19 18.8954 19 20V24C19 25.1046 19.8954 26 21 26H25C26.1046 26 27 25.1046 27 24V20ZM25 20H21V24H25V20ZM11 20H15V24H11V20ZM17 10C17 8.89543 16.1046 8 15 8H11C9.89543 8 9 8.89543 9 10V14C9 15.1046 9.89543 16 11 16H15C16.1046 16 17 15.1046 17 14V10ZM25 10H21V14H25V10ZM11 10H15V14H11V10Z" fill="#EDA3B5"/>
<path fill-rule="evenodd" clip-rule="evenodd" d="M59.1111 10C59.602 10 60 10.4477 60 11C60 11.5128 59.6569 11.9355 59.2148 11.9933L59.1111 12H44.8889C44.398 12 44 11.5523 44 11C44 10.4872 44.3431 10.0645 44.7852 10.0067L44.8889 10H59.1111ZM59.1111 16C59.602 16 60 16.4477 60 17C60 17.5128 59.6569 17.9355 59.2148 17.9933L59.1111 18H44.8889C44.398 18 44 17.5523 44 17C44 16.4872 44.3431 16.0645 44.7852 16.0067L44.8889 16H59.1111ZM60 23C60 22.4477 59.602 22 59.1111 22H44.8889L44.7852 22.0067C44.3431 22.0645 44 22.4872 44 23C44 23.5523 44.398 24 44.8889 24H59.1111L59.2148 23.9933C59.6569 23.9355 60 23.5128 60 23Z" fill="#E5E5EA"/>
</svg>
