<svg width="72" height="34" viewBox="0 0 72 34" fill="none" xmlns="http://www.w3.org/2000/svg">
<path fill-rule="evenodd" clip-rule="evenodd" d="M72 8C72 3.58172 68.4183 0 64 0H8C3.58172 0 0 3.58172 0 8V26C0 30.4183 3.58172 34 8 34H64C68.4183 34 72 30.4183 72 26V8ZM8 2H64L64.2249 2.00414C67.4344 2.12243 70 4.7616 70 8V26L69.9959 26.2249C69.8776 29.4344 67.2384 32 64 32H8L7.77506 31.9959C4.56557 31.8776 2 29.2384 2 26V8L2.00414 7.77506C2.12243 4.56557 4.7616 2 8 2Z" fill="#E5E5EA"/>
<rect x="36" width="36" height="34" rx="8" fill="white"/>
<path fill-rule="evenodd" clip-rule="evenodd" d="M25 8C26.1046 8 27 8.89543 27 10V14C27 15.1046 26.1046 16 25 16H21C19.8954 16 19 15.1046 19 14V10C19 8.89543 19.8954 8 21 8H25ZM17 20C17 18.8954 16.1046 18 15 18H11C9.89543 18 9 18.8954 9 20V24C9 25.1046 9.89543 26 11 26H15C16.1046 26 17 25.1046 17 24V20ZM27 20C27 18.8954 26.1046 18 25 18H21C19.8954 18 19 18.8954 19 20V24C19 25.1046 19.8954 26 21 26H25C26.1046 26 27 25.1046 27 24V20ZM25 20H21V24H25V20ZM11 20H15V24H11V20ZM17 10C17 8.89543 16.1046 8 15 8H11C9.89543 8 9 8.89543 9 10V14C9 15.1046 9.89543 16 11 16H15C16.1046 16 17 15.1046 17 14V10ZM25 10H21V14H25V10ZM11 10H15V14H11V10Z" fill="#E5E5EA"/>
<path fill-rule="evenodd" clip-rule="evenodd" d="M61.1111 10C61.602 10 62 10.4477 62 11C62 11.5128 61.6569 11.9355 61.2148 11.9933L61.1111 12H46.8889C46.398 12 46 11.5523 46 11C46 10.4872 46.3431 10.0645 46.7852 10.0067L46.8889 10H61.1111ZM61.1111 16C61.602 16 62 16.4477 62 17C62 17.5128 61.6569 17.9355 61.2148 17.9933L61.1111 18H46.8889C46.398 18 46 17.5523 46 17C46 16.4872 46.3431 16.0645 46.7852 16.0067L46.8889 16H61.1111ZM62 23C62 22.4477 61.602 22 61.1111 22H46.8889L46.7852 22.0067C46.3431 22.0645 46 22.4872 46 23C46 23.5523 46.398 24 46.8889 24H61.1111L61.2148 23.9933C61.6569 23.9355 62 23.5128 62 23Z" fill="#EDA3B5"/>
</svg>
